<svg width="150" height="150" viewBox="0 0 150 150" fill="none" xmlns="http://www.w3.org/2000/svg">
<circle cx="75" cy="75" r="75" fill="#44A5FF"/>
<path d="M104.636 62H96.1818C95.6818 59.5682 94.8068 57.4318 93.5568 55.5909C92.3295 53.75 90.8295 52.2045 89.0568 50.9545C87.3068 49.6818 85.3636 48.7273 83.2273 48.0909C81.0909 47.4545 78.8636 47.1364 76.5455 47.1364C72.3182 47.1364 68.4886 48.2045 65.0568 50.3409C61.6477 52.4773 58.9318 55.625 56.9091 59.7841C54.9091 63.9432 53.9091 69.0455 53.9091 75.0909C53.9091 81.1364 54.9091 86.2386 56.9091 90.3977C58.9318 94.5568 61.6477 97.7045 65.0568 99.8409C68.4886 101.977 72.3182 103.045 76.5455 103.045C78.8636 103.045 81.0909 102.727 83.2273 102.091C85.3636 101.455 87.3068 100.511 89.0568 99.2614C90.8295 97.9886 92.3295 96.4318 93.5568 94.5909C94.8068 92.7273 95.6818 90.5909 96.1818 88.1818H104.636C104 91.75 102.841 94.9432 101.159 97.7614C99.4773 100.58 97.3864 102.977 94.8864 104.955C92.3864 106.909 89.5795 108.398 86.4659 109.42C83.375 110.443 80.0682 110.955 76.5455 110.955C70.5909 110.955 65.2955 109.5 60.6591 106.591C56.0227 103.682 52.375 99.5455 49.7159 94.1818C47.0568 88.8182 45.7273 82.4545 45.7273 75.0909C45.7273 67.7273 47.0568 61.3636 49.7159 56C52.375 50.6364 56.0227 46.5 60.6591 43.5909C65.2955 40.6818 70.5909 39.2273 76.5455 39.2273C80.0682 39.2273 83.375 39.7386 86.4659 40.7614C89.5795 41.7841 92.3864 43.2841 94.8864 45.2614C97.3864 47.2159 99.4773 49.6023 101.159 52.4205C102.841 55.2159 104 58.4091 104.636 62Z" fill="white"/>
</svg>
